<svg xmlns="http://www.w3.org/2000/svg" xmlns:xlink="http://www.w3.org/1999/xlink" width="320" zoomAndPan="magnify" viewBox="0 0 240 149.999998" height="200" preserveAspectRatio="xMidYMid meet" version="1.0"><defs><g/></defs><rect x="-24" width="288" fill="#ffffff" y="-15" height="179.999997" fill-opacity="1"/><rect x="-24" width="288" fill="#f10000" y="-15" height="179.999997" fill-opacity="1"/><path fill="#ffffff" d="M 128.25 46.488281 C 126.449219 46.488281 124.75 47.1875 123.539062 48.398438 L 114.75 56.199219 C 113.949219 57 112.886719 57.4375 111.75 57.4375 C 109.414062 57.4375 107.511719 55.550781 107.511719 53.210938 C 107.511719 50.875 109.414062 48.988281 111.75 48.988281 C 112.886719 48.988281 113.949219 49.425781 114.800781 50.273438 L 116.210938 51.523438 L 118.101562 49.847656 L 116.523438 48.460938 C 115.25 47.1875 113.550781 46.488281 111.75 46.488281 C 108.023438 46.488281 105 49.511719 105 53.210938 C 105 56.910156 108.023438 59.9375 111.75 59.9375 C 113.550781 59.9375 115.25 59.238281 116.460938 58.023438 L 125.25 50.222656 C 126.050781 49.425781 127.113281 48.988281 128.25 48.988281 C 130.585938 48.988281 132.488281 50.875 132.488281 53.210938 C 132.488281 55.550781 130.585938 57.4375 128.25 57.4375 C 127.125 57.4375 126.050781 57 125.199219 56.148438 L 123.773438 54.886719 L 121.886719 56.5625 L 123.476562 57.960938 C 124.75 59.222656 126.4375 59.925781 128.25 59.925781 C 131.976562 59.925781 135 56.910156 135 53.199219 C 135 49.488281 131.976562 46.488281 128.25 46.488281 Z M 128.25 46.488281 " fill-opacity="1" fill-rule="nonzero"/><g fill="#ffffff" fill-opacity="1"><g transform="translate(78.698692, 82.874997)"><g><path d="M 2.679688 0.0976562 C 3.015625 0.0976562 3.644531 0.0742188 4.078125 0.0234375 C 4.390625 -0.046875 4.679688 -0.289062 4.679688 -0.675781 C 4.679688 -6.273438 4.441406 -12.667969 4.320312 -16.285156 C 4.292969 -16.601562 4.054688 -16.816406 3.738281 -16.890625 C 3.449219 -16.960938 2.992188 -16.984375 2.726562 -16.984375 C 2.460938 -16.984375 1.929688 -16.960938 1.59375 -16.890625 C 1.253906 -16.816406 1.011719 -16.625 0.988281 -16.285156 C 0.867188 -12.667969 0.652344 -6.273438 0.652344 -0.675781 C 0.652344 -0.289062 0.917969 -0.046875 1.253906 0 C 1.6875 0.0742188 2.339844 0.0976562 2.679688 0.0976562 Z M 2.679688 0.0976562 "/></g></g></g><g fill="#ffffff" fill-opacity="1"><g transform="translate(84.00447, 82.874997)"><g><path d="M 2.535156 0.0976562 C 2.917969 0.0976562 3.59375 0.0742188 3.957031 0 C 4.269531 -0.046875 4.558594 -0.289062 4.511719 -0.675781 C 4.292969 -2.484375 4.246094 -4.585938 4.222656 -5.984375 C 4.222656 -8.589844 5.550781 -10.253906 7.429688 -10.253906 C 9.386719 -10.253906 10.617188 -8.613281 10.664062 -6.03125 C 10.6875 -4.753906 10.617188 -2.363281 10.445312 -0.675781 C 10.421875 -0.289062 10.710938 -0.0742188 11.027344 0 C 11.484375 0.0742188 12.183594 0.0976562 12.472656 0.0976562 C 12.738281 0.0976562 13.34375 0.0742188 13.730469 0 C 14.066406 -0.0742188 14.308594 -0.265625 14.308594 -0.699219 C 14.308594 -3.523438 14.234375 -5.066406 14.140625 -6.925781 C 13.96875 -10.882812 11.847656 -13.320312 8.925781 -13.320312 C 7.238281 -13.320312 6.007812 -12.691406 4.875 -11.148438 C 4.585938 -10.6875 4.34375 -10.738281 4.367188 -11.292969 C 4.390625 -11.605469 4.464844 -12.039062 4.609375 -12.472656 C 4.703125 -12.835938 4.441406 -13.078125 4.125 -13.125 C 3.667969 -13.199219 3.207031 -13.222656 2.773438 -13.222656 C 2.363281 -13.222656 1.90625 -13.199219 1.566406 -13.125 C 1.253906 -13.078125 1.085938 -12.859375 1.039062 -12.496094 C 0.675781 -8.902344 0.628906 -6.539062 0.628906 -0.699219 C 0.601562 -0.289062 0.867188 -0.046875 1.15625 0 C 1.542969 0.0742188 2.097656 0.0976562 2.535156 0.0976562 Z M 2.535156 0.0976562 "/></g></g></g><g fill="#ffffff" fill-opacity="1"><g transform="translate(98.860652, 82.874997)"><g><path d="M 4.464844 0.0976562 C 4.898438 0.0976562 5.550781 0.0742188 5.960938 0 C 6.25 -0.0742188 6.539062 -0.289062 6.492188 -0.675781 C 6.320312 -2.847656 5.984375 -6.371094 6.082031 -10.351562 C 6.082031 -10.664062 6.273438 -10.90625 6.5625 -10.90625 C 7.359375 -10.90625 8.6875 -10.785156 9.433594 -10.710938 C 9.796875 -10.6875 10.085938 -10.976562 10.085938 -11.339844 C 10.109375 -11.75 10.109375 -12.160156 10.085938 -12.546875 C 10.085938 -12.933594 9.773438 -13.222656 9.386719 -13.171875 C 8.757812 -13.101562 8.226562 -13.054688 7.574219 -13.054688 C 6.828125 -13.054688 6.128906 -13.320312 6.105469 -13.800781 C 6.054688 -14.429688 6.609375 -14.933594 7.429688 -14.933594 C 7.9375 -14.933594 8.660156 -14.667969 9.023438 -14.285156 C 9.433594 -13.847656 9.988281 -14.042969 9.988281 -14.71875 C 9.988281 -15.273438 9.988281 -15.996094 9.964844 -16.550781 C 9.964844 -16.839844 9.820312 -17.105469 9.578125 -17.203125 C 8.804688 -17.566406 7.746094 -17.757812 6.972656 -17.757812 C 4.390625 -17.757812 2.171875 -16.480469 2.652344 -13.511719 C 2.703125 -13.246094 2.4375 -13.125 2.21875 -13.125 L 1.011719 -13.125 C 0.652344 -13.125 0.363281 -12.8125 0.363281 -12.472656 L 0.363281 -11.507812 C 0.363281 -11.148438 0.652344 -10.855469 1.011719 -10.855469 L 2.027344 -10.855469 C 2.292969 -10.855469 2.484375 -10.640625 2.484375 -10.328125 C 2.386719 -7.359375 2.316406 -4.320312 2.316406 -0.699219 C 2.316406 -0.3125 2.558594 -0.0742188 2.871094 0 C 3.28125 0.0742188 4.003906 0.0976562 4.464844 0.0976562 Z M 4.464844 0.0976562 "/></g></g></g><g fill="#ffffff" fill-opacity="1"><g transform="translate(109.303385, 82.874997)"><g><path d="M 2.605469 -14.378906 C 3.8125 -14.378906 4.65625 -15.105469 4.65625 -16.09375 C 4.65625 -17.105469 3.8125 -17.832031 2.605469 -17.832031 C 1.421875 -17.832031 0.578125 -17.105469 0.578125 -16.09375 C 0.578125 -15.105469 1.421875 -14.378906 2.605469 -14.378906 Z M 2.652344 0.0976562 C 2.917969 0.0976562 3.546875 0.0742188 3.957031 0 C 4.246094 -0.0742188 4.488281 -0.289062 4.488281 -0.675781 C 4.488281 -6.273438 4.464844 -8.925781 4.222656 -12.523438 C 4.199219 -12.933594 4.027344 -13.054688 3.714844 -13.125 C 3.402344 -13.199219 2.894531 -13.222656 2.679688 -13.222656 C 2.414062 -13.222656 1.859375 -13.199219 1.519531 -13.125 C 1.207031 -13.078125 1.039062 -12.933594 1.011719 -12.523438 C 0.773438 -8.925781 0.746094 -6.273438 0.746094 -0.699219 C 0.746094 -0.3125 0.988281 -0.0742188 1.277344 0 C 1.6875 0.0976562 2.386719 0.0976562 2.652344 0.0976562 Z M 2.652344 0.0976562 "/></g></g></g><g fill="#ffffff" fill-opacity="1"><g transform="translate(114.536814, 82.874997)"><g><path d="M 2.535156 0.0976562 C 2.917969 0.0976562 3.59375 0.0742188 3.957031 0 C 4.269531 -0.046875 4.558594 -0.289062 4.511719 -0.675781 C 4.292969 -2.484375 4.246094 -4.585938 4.222656 -5.984375 C 4.222656 -8.589844 5.550781 -10.253906 7.429688 -10.253906 C 9.386719 -10.253906 10.617188 -8.613281 10.664062 -6.03125 C 10.6875 -4.753906 10.617188 -2.363281 10.445312 -0.675781 C 10.421875 -0.289062 10.710938 -0.0742188 11.027344 0 C 11.484375 0.0742188 12.183594 0.0976562 12.472656 0.0976562 C 12.738281 0.0976562 13.34375 0.0742188 13.730469 0 C 14.066406 -0.0742188 14.308594 -0.265625 14.308594 -0.699219 C 14.308594 -3.523438 14.234375 -5.066406 14.140625 -6.925781 C 13.96875 -10.882812 11.847656 -13.320312 8.925781 -13.320312 C 7.238281 -13.320312 6.007812 -12.691406 4.875 -11.148438 C 4.585938 -10.6875 4.34375 -10.738281 4.367188 -11.292969 C 4.390625 -11.605469 4.464844 -12.039062 4.609375 -12.472656 C 4.703125 -12.835938 4.441406 -13.078125 4.125 -13.125 C 3.667969 -13.199219 3.207031 -13.222656 2.773438 -13.222656 C 2.363281 -13.222656 1.90625 -13.199219 1.566406 -13.125 C 1.253906 -13.078125 1.085938 -12.859375 1.039062 -12.496094 C 0.675781 -8.902344 0.628906 -6.539062 0.628906 -0.699219 C 0.601562 -0.289062 0.867188 -0.046875 1.15625 0 C 1.542969 0.0742188 2.097656 0.0976562 2.535156 0.0976562 Z M 2.535156 0.0976562 "/></g></g></g><g fill="#ffffff" fill-opacity="1"><g transform="translate(129.392995, 82.874997)"><g><path d="M 2.605469 -14.378906 C 3.8125 -14.378906 4.65625 -15.105469 4.65625 -16.09375 C 4.65625 -17.105469 3.8125 -17.832031 2.605469 -17.832031 C 1.421875 -17.832031 0.578125 -17.105469 0.578125 -16.09375 C 0.578125 -15.105469 1.421875 -14.378906 2.605469 -14.378906 Z M 2.652344 0.0976562 C 2.917969 0.0976562 3.546875 0.0742188 3.957031 0 C 4.246094 -0.0742188 4.488281 -0.289062 4.488281 -0.675781 C 4.488281 -6.273438 4.464844 -8.925781 4.222656 -12.523438 C 4.199219 -12.933594 4.027344 -13.054688 3.714844 -13.125 C 3.402344 -13.199219 2.894531 -13.222656 2.679688 -13.222656 C 2.414062 -13.222656 1.859375 -13.199219 1.519531 -13.125 C 1.207031 -13.078125 1.039062 -12.933594 1.011719 -12.523438 C 0.773438 -8.925781 0.746094 -6.273438 0.746094 -0.699219 C 0.746094 -0.3125 0.988281 -0.0742188 1.277344 0 C 1.6875 0.0976562 2.386719 0.0976562 2.652344 0.0976562 Z M 2.652344 0.0976562 "/></g></g></g><g fill="#ffffff" fill-opacity="1"><g transform="translate(134.626424, 82.874997)"><g><path d="M 7.359375 0.191406 C 8.347656 0.191406 10.277344 0 11.171875 -0.410156 C 11.414062 -0.53125 11.582031 -0.773438 11.605469 -1.15625 C 11.605469 -1.808594 11.628906 -2.363281 11.628906 -3.0625 C 11.652344 -3.738281 11.074219 -4.003906 10.664062 -3.570312 C 10.230469 -3.257812 8.710938 -2.894531 8.15625 -2.894531 C 7.214844 -2.894531 6.515625 -3.378906 6.441406 -4.632812 C 6.394531 -6.03125 6.371094 -8.105469 6.515625 -9.796875 C 6.585938 -10.375 6.925781 -10.6875 7.503906 -10.6875 C 8.179688 -10.710938 10.011719 -10.640625 10.664062 -10.566406 C 11.027344 -10.519531 11.316406 -10.855469 11.316406 -11.21875 L 11.316406 -12.523438 C 11.316406 -12.882812 11.027344 -13.171875 10.664062 -13.171875 C 9.652344 -13.148438 8.15625 -13.125 7.140625 -13.125 C 6.902344 -13.125 6.707031 -13.320312 6.707031 -13.609375 C 6.707031 -14.285156 6.804688 -14.839844 6.851562 -15.488281 C 6.902344 -15.875 6.585938 -16.117188 6.273438 -16.164062 C 5.863281 -16.238281 5.476562 -16.261719 5.066406 -16.261719 C 4.679688 -16.261719 4.269531 -16.238281 3.859375 -16.164062 C 3.523438 -16.117188 3.304688 -15.875 3.257812 -15.488281 C 3.183594 -14.863281 3.160156 -14.1875 3.160156 -13.582031 C 3.160156 -13.320312 2.992188 -13.125 2.726562 -13.125 L 0.941406 -13.125 C 0.578125 -13.125 0.289062 -12.835938 0.289062 -12.472656 L 0.289062 -11.339844 C 0.289062 -10.976562 0.578125 -10.664062 0.941406 -10.6875 C 1.519531 -10.710938 2.148438 -10.710938 2.726562 -10.710938 C 2.945312 -10.710938 3.183594 -10.519531 3.160156 -10.277344 C 2.96875 -8.300781 2.917969 -5.816406 2.917969 -4.125 C 2.945312 -1.277344 4.875 0.191406 7.359375 0.191406 Z M 7.359375 0.191406 "/></g></g></g><g fill="#ffffff" fill-opacity="1"><g transform="translate(146.540306, 82.874997)"><g><path d="M 6.828125 5.742188 C 10.519531 5.742188 14.164062 3.910156 14.164062 -0.796875 C 14.1875 -4.996094 14.140625 -7.429688 13.753906 -12.449219 C 13.730469 -12.835938 13.488281 -13.101562 13.171875 -13.148438 C 12.789062 -13.199219 12.234375 -13.246094 11.796875 -13.246094 C 11.386719 -13.246094 10.6875 -13.199219 10.328125 -13.148438 C 10.035156 -13.078125 9.746094 -12.835938 9.820312 -12.449219 C 10.132812 -10.664062 10.277344 -8.804688 10.277344 -7.40625 C 10.277344 -4.777344 9.242188 -2.871094 7.480469 -2.871094 C 5.261719 -2.871094 4.34375 -4.632812 4.34375 -7.238281 C 4.34375 -8.613281 4.65625 -10.785156 4.898438 -12.472656 C 4.945312 -12.859375 4.679688 -13.078125 4.367188 -13.148438 C 3.910156 -13.222656 3.136719 -13.246094 2.847656 -13.246094 C 2.582031 -13.246094 2.027344 -13.222656 1.640625 -13.148438 C 1.328125 -13.078125 1.109375 -12.859375 1.0625 -12.449219 C 0.84375 -9.867188 0.722656 -8.324219 0.722656 -6.464844 C 0.722656 -2.507812 2.363281 0.191406 6.03125 0.191406 C 7.816406 0.191406 9.265625 -0.3125 10.109375 -1.976562 C 10.300781 -2.4375 10.6875 -2.386719 10.6875 -1.859375 L 10.6875 -1.542969 C 10.6875 0.433594 8.613281 2.535156 6.007812 2.535156 C 4.488281 2.535156 2.773438 2.074219 1.664062 1.328125 C 1.304688 0.941406 0.796875 1.109375 0.746094 1.664062 C 0.652344 2.484375 0.601562 3.472656 0.507812 4.292969 C 0.484375 4.703125 0.675781 4.996094 1.039062 5.113281 C 2.582031 5.597656 5.042969 5.742188 6.828125 5.742188 Z M 6.828125 5.742188 "/></g></g></g><g fill="#ffffff" fill-opacity="1"><g transform="translate(69.835875, 98.234792)"><g><path d="M 3.269531 0.078125 C 5.085938 0.078125 6.199219 -0.632812 6.199219 -1.835938 C 6.199219 -4.023438 1.914062 -3.789062 1.914062 -5.007812 C 1.914062 -5.476562 2.617188 -5.683594 3.339844 -5.683594 C 4.042969 -5.683594 4.765625 -5.417969 5.3125 -4.929688 C 5.457031 -4.753906 5.683594 -4.863281 5.683594 -5.117188 L 5.683594 -6.210938 C 5.683594 -6.328125 5.613281 -6.433594 5.507812 -6.492188 C 4.882812 -6.765625 4.011719 -6.914062 3.269531 -6.914062 C 1.648438 -6.914062 0.390625 -6.328125 0.390625 -5.105469 C 0.390625 -2.851562 4.636719 -3.25 4.636719 -1.914062 C 4.636719 -1.414062 4.082031 -1.160156 3.222656 -1.160156 C 2.214844 -1.160156 1.257812 -1.453125 0.605469 -2.15625 C 0.457031 -2.332031 0.222656 -2.265625 0.222656 -1.992188 C 0.214844 -1.5625 0.203125 -1.140625 0.203125 -0.710938 C 0.203125 -0.566406 0.261719 -0.457031 0.371094 -0.417969 C 1.160156 -0.136719 2.421875 0.078125 3.269531 0.078125 Z M 3.269531 0.078125 "/></g></g></g><g fill="#ffffff" fill-opacity="1"><g transform="translate(76.229746, 98.234792)"><g><path d="M 2.910156 0.078125 C 4.472656 0.078125 5.625 -0.820312 5.625 -2.617188 C 5.625 -4.363281 4.480469 -5.390625 2.910156 -5.390625 C 1.328125 -5.390625 0.175781 -4.363281 0.175781 -2.617188 C 0.175781 -0.820312 1.347656 0.078125 2.910156 0.078125 Z M 2.910156 -1.074219 C 2.136719 -1.074219 1.582031 -1.640625 1.582031 -2.664062 C 1.582031 -3.640625 2.117188 -4.238281 2.910156 -4.238281 C 3.691406 -4.238281 4.238281 -3.640625 4.238281 -2.664062 C 4.238281 -1.640625 3.671875 -1.074219 2.910156 -1.074219 Z M 2.910156 -1.074219 "/></g></g></g><g fill="#ffffff" fill-opacity="1"><g transform="translate(82.028158, 98.234792)"><g><path d="M 0.976562 0.0390625 C 1.074219 0.0390625 1.335938 0.0273438 1.492188 0 C 1.609375 -0.0273438 1.71875 -0.117188 1.707031 -0.273438 C 1.667969 -1.054688 1.660156 -1.777344 1.6875 -2.507812 C 1.71875 -3.476562 2.117188 -4.050781 2.636719 -4.050781 C 3.210938 -4.050781 3.59375 -3.503906 3.601562 -2.605469 C 3.613281 -1.992188 3.59375 -1.023438 3.554688 -0.273438 C 3.542969 -0.117188 3.660156 -0.0273438 3.777344 0 C 3.972656 0.0390625 4.265625 0.0390625 4.402344 0.0390625 C 4.519531 0.0390625 4.726562 0.0273438 4.882812 0 C 5.019531 -0.0273438 5.136719 -0.117188 5.117188 -0.28125 C 5.066406 -1.003906 5.046875 -1.863281 5.046875 -2.527344 C 5.046875 -3.484375 5.476562 -4.050781 5.984375 -4.050781 C 6.5625 -4.050781 6.941406 -3.503906 6.953125 -2.605469 C 6.960938 -2.089844 6.941406 -0.996094 6.894531 -0.273438 C 6.882812 -0.117188 7 -0.0273438 7.128906 0 C 7.3125 0.0390625 7.605469 0.0390625 7.742188 0.0390625 C 7.851562 0.0390625 8.046875 0.0273438 8.210938 0 C 8.339844 -0.0273438 8.4375 -0.105469 8.4375 -0.28125 C 8.4375 -1.257812 8.386719 -2.195312 8.359375 -2.917969 C 8.289062 -4.519531 7.480469 -5.390625 6.503906 -5.390625 C 5.839844 -5.390625 5.320312 -5.078125 5.039062 -4.578125 C 4.902344 -4.296875 4.773438 -4.285156 4.648438 -4.589844 C 4.375 -5.125 3.867188 -5.390625 3.28125 -5.390625 C 2.734375 -5.390625 2.1875 -5.039062 1.914062 -4.472656 C 1.816406 -4.257812 1.707031 -4.304688 1.707031 -4.53125 C 1.707031 -4.667969 1.757812 -4.84375 1.796875 -5.066406 C 1.816406 -5.203125 1.71875 -5.28125 1.589844 -5.3125 C 1.464844 -5.339844 1.238281 -5.351562 1.074219 -5.351562 C 0.867188 -5.351562 0.710938 -5.339844 0.574219 -5.3125 C 0.449219 -5.292969 0.378906 -5.203125 0.359375 -5.066406 C 0.253906 -3.601562 0.234375 -2.664062 0.234375 -0.28125 C 0.234375 -0.125 0.332031 -0.0273438 0.4375 0 C 0.605469 0.0390625 0.867188 0.0390625 0.976562 0.0390625 Z M 0.976562 0.0390625 "/></g></g></g><g fill="#ffffff" fill-opacity="1"><g transform="translate(90.686723, 98.234792)"><g><path d="M 2.910156 0.078125 C 4.472656 0.078125 5.625 -0.820312 5.625 -2.617188 C 5.625 -4.363281 4.480469 -5.390625 2.910156 -5.390625 C 1.328125 -5.390625 0.175781 -4.363281 0.175781 -2.617188 C 0.175781 -0.820312 1.347656 0.078125 2.910156 0.078125 Z M 2.910156 -1.074219 C 2.136719 -1.074219 1.582031 -1.640625 1.582031 -2.664062 C 1.582031 -3.640625 2.117188 -4.238281 2.910156 -4.238281 C 3.691406 -4.238281 4.238281 -3.640625 4.238281 -2.664062 C 4.238281 -1.640625 3.671875 -1.074219 2.910156 -1.074219 Z M 2.910156 -1.074219 "/></g></g></g><g fill="#ffffff" fill-opacity="1"><g transform="translate(96.485135, 98.234792)"><g><path d="M 2.605469 0.0664062 C 4.167969 0.0664062 5 -0.546875 5 -1.484375 C 5 -3.261719 1.777344 -3.015625 1.777344 -3.796875 C 1.777344 -4.101562 2.226562 -4.285156 2.78125 -4.285156 C 3.308594 -4.285156 3.886719 -4.101562 4.257812 -3.835938 C 4.402344 -3.699219 4.617188 -3.710938 4.617188 -4.042969 C 4.617188 -4.304688 4.617188 -4.570312 4.609375 -4.832031 C 4.609375 -4.980469 4.511719 -5.105469 4.355469 -5.164062 C 3.894531 -5.300781 3.171875 -5.378906 2.695312 -5.378906 C 1.316406 -5.378906 0.320312 -4.882812 0.320312 -3.925781 C 0.320312 -2.167969 3.542969 -2.46875 3.542969 -1.609375 C 3.542969 -1.230469 3.191406 -1.082031 2.527344 -1.082031 C 1.875 -1.082031 1.0625 -1.355469 0.613281 -1.738281 C 0.488281 -1.894531 0.253906 -1.855469 0.234375 -1.570312 C 0.214844 -1.25 0.203125 -0.9375 0.183594 -0.613281 C 0.175781 -0.4375 0.273438 -0.332031 0.417969 -0.273438 C 0.984375 -0.0976562 1.921875 0.0664062 2.605469 0.0664062 Z M 2.605469 0.0664062 "/></g></g></g><g fill="#ffffff" fill-opacity="1"><g transform="translate(101.668564, 98.234792)"><g/></g></g><g fill="#ffffff" fill-opacity="1"><g transform="translate(104.294445, 98.234792)"><g><path d="M 2.976562 0.078125 C 3.378906 0.078125 4.160156 0 4.519531 -0.164062 C 4.617188 -0.214844 4.6875 -0.3125 4.695312 -0.46875 C 4.695312 -0.730469 4.707031 -0.957031 4.707031 -1.238281 C 4.714844 -1.511719 4.480469 -1.621094 4.316406 -1.445312 C 4.140625 -1.316406 3.523438 -1.171875 3.300781 -1.171875 C 2.917969 -1.171875 2.636719 -1.367188 2.605469 -1.875 C 2.585938 -2.441406 2.578125 -3.28125 2.636719 -3.964844 C 2.664062 -4.199219 2.800781 -4.324219 3.035156 -4.324219 C 3.308594 -4.335938 4.050781 -4.304688 4.316406 -4.277344 C 4.460938 -4.257812 4.578125 -4.394531 4.578125 -4.539062 L 4.578125 -5.066406 C 4.578125 -5.214844 4.460938 -5.332031 4.316406 -5.332031 C 3.90625 -5.320312 3.300781 -5.3125 2.890625 -5.3125 C 2.792969 -5.3125 2.714844 -5.390625 2.714844 -5.507812 C 2.714844 -5.78125 2.753906 -6.003906 2.773438 -6.269531 C 2.792969 -6.425781 2.664062 -6.523438 2.539062 -6.542969 C 2.371094 -6.570312 2.214844 -6.582031 2.050781 -6.582031 C 1.894531 -6.582031 1.726562 -6.570312 1.5625 -6.542969 C 1.425781 -6.523438 1.335938 -6.425781 1.316406 -6.269531 C 1.289062 -6.015625 1.277344 -5.742188 1.277344 -5.496094 C 1.277344 -5.390625 1.210938 -5.3125 1.101562 -5.3125 L 0.378906 -5.3125 C 0.234375 -5.3125 0.117188 -5.195312 0.117188 -5.046875 L 0.117188 -4.589844 C 0.117188 -4.441406 0.234375 -4.316406 0.378906 -4.324219 C 0.613281 -4.335938 0.867188 -4.335938 1.101562 -4.335938 C 1.191406 -4.335938 1.289062 -4.257812 1.277344 -4.160156 C 1.199219 -3.359375 1.179688 -2.351562 1.179688 -1.667969 C 1.191406 -0.515625 1.972656 0.078125 2.976562 0.078125 Z M 2.976562 0.078125 "/></g></g></g><g fill="#ffffff" fill-opacity="1"><g transform="translate(109.116687, 98.234792)"><g><path d="M 2.910156 0.078125 C 4.472656 0.078125 5.625 -0.820312 5.625 -2.617188 C 5.625 -4.363281 4.480469 -5.390625 2.910156 -5.390625 C 1.328125 -5.390625 0.175781 -4.363281 0.175781 -2.617188 C 0.175781 -0.820312 1.347656 0.078125 2.910156 0.078125 Z M 2.910156 -1.074219 C 2.136719 -1.074219 1.582031 -1.640625 1.582031 -2.664062 C 1.582031 -3.640625 2.117188 -4.238281 2.910156 -4.238281 C 3.691406 -4.238281 4.238281 -3.640625 4.238281 -2.664062 C 4.238281 -1.640625 3.671875 -1.074219 2.910156 -1.074219 Z M 2.910156 -1.074219 "/></g></g></g><g fill="#ffffff" fill-opacity="1"><g transform="translate(114.915099, 98.234792)"><g><path d="M 2.3125 0.078125 C 3.007812 0.078125 3.613281 -0.214844 3.984375 -0.75 C 4.082031 -0.925781 4.199219 -0.898438 4.179688 -0.691406 C 4.167969 -0.527344 4.148438 -0.410156 4.128906 -0.273438 C 4.101562 -0.117188 4.21875 -0.0195312 4.34375 0.0078125 C 4.492188 0.0273438 4.753906 0.0390625 4.910156 0.0390625 C 5.027344 0.0390625 5.300781 0.0273438 5.457031 0 C 5.585938 -0.0273438 5.671875 -0.117188 5.671875 -0.273438 C 5.671875 -2.664062 5.652344 -5.429688 5.507812 -6.785156 C 5.496094 -6.921875 5.417969 -7 5.292969 -7.03125 C 5.144531 -7.070312 4.929688 -7.070312 4.707031 -7.070312 C 4.480469 -7.070312 4.257812 -7.058594 4.128906 -7.03125 C 4.011719 -7 3.894531 -6.894531 3.914062 -6.757812 C 4.011719 -6.179688 4.140625 -5.371094 4.160156 -4.589844 C 4.167969 -4.394531 4.050781 -4.363281 3.953125 -4.519531 C 3.601562 -5.097656 2.996094 -5.378906 2.3125 -5.378906 C 1.074219 -5.378906 0.175781 -4.375 0.175781 -2.625 C 0.175781 -0.847656 1.082031 0.078125 2.3125 0.078125 Z M 2.878906 -1.101562 C 2.128906 -1.101562 1.570312 -1.679688 1.570312 -2.675781 C 1.570312 -3.640625 2.109375 -4.21875 2.878906 -4.21875 C 3.632812 -4.21875 4.1875 -3.660156 4.1875 -2.695312 C 4.1875 -1.6875 3.613281 -1.101562 2.878906 -1.101562 Z M 2.878906 -1.101562 "/></g></g></g><g fill="#ffffff" fill-opacity="1"><g transform="translate(120.859927, 98.234792)"><g><path d="M 2.910156 0.078125 C 4.472656 0.078125 5.625 -0.820312 5.625 -2.617188 C 5.625 -4.363281 4.480469 -5.390625 2.910156 -5.390625 C 1.328125 -5.390625 0.175781 -4.363281 0.175781 -2.617188 C 0.175781 -0.820312 1.347656 0.078125 2.910156 0.078125 Z M 2.910156 -1.074219 C 2.136719 -1.074219 1.582031 -1.640625 1.582031 -2.664062 C 1.582031 -3.640625 2.117188 -4.238281 2.910156 -4.238281 C 3.691406 -4.238281 4.238281 -3.640625 4.238281 -2.664062 C 4.238281 -1.640625 3.671875 -1.074219 2.910156 -1.074219 Z M 2.910156 -1.074219 "/></g></g></g><g fill="#ffffff" fill-opacity="1"><g transform="translate(126.658339, 98.234792)"><g><path d="M 2.605469 0.0664062 C 4.167969 0.0664062 5 -0.546875 5 -1.484375 C 5 -3.261719 1.777344 -3.015625 1.777344 -3.796875 C 1.777344 -4.101562 2.226562 -4.285156 2.78125 -4.285156 C 3.308594 -4.285156 3.886719 -4.101562 4.257812 -3.835938 C 4.402344 -3.699219 4.617188 -3.710938 4.617188 -4.042969 C 4.617188 -4.304688 4.617188 -4.570312 4.609375 -4.832031 C 4.609375 -4.980469 4.511719 -5.105469 4.355469 -5.164062 C 3.894531 -5.300781 3.171875 -5.378906 2.695312 -5.378906 C 1.316406 -5.378906 0.320312 -4.882812 0.320312 -3.925781 C 0.320312 -2.167969 3.542969 -2.46875 3.542969 -1.609375 C 3.542969 -1.230469 3.191406 -1.082031 2.527344 -1.082031 C 1.875 -1.082031 1.0625 -1.355469 0.613281 -1.738281 C 0.488281 -1.894531 0.253906 -1.855469 0.234375 -1.570312 C 0.214844 -1.25 0.203125 -0.9375 0.183594 -0.613281 C 0.175781 -0.4375 0.273438 -0.332031 0.417969 -0.273438 C 0.984375 -0.0976562 1.921875 0.0664062 2.605469 0.0664062 Z M 2.605469 0.0664062 "/></g></g></g><g fill="#ffffff" fill-opacity="1"><g transform="translate(131.841768, 98.234792)"><g/></g></g><g fill="#ffffff" fill-opacity="1"><g transform="translate(134.467649, 98.234792)"><g><path d="M 1.824219 0.078125 C 2.519531 0.078125 3.203125 -0.320312 3.503906 -0.964844 C 3.582031 -1.132812 3.730469 -1.09375 3.710938 -0.90625 C 3.691406 -0.703125 3.652344 -0.46875 3.632812 -0.339844 C 3.601562 -0.175781 3.730469 -0.0390625 3.894531 -0.0078125 C 4.050781 0.0273438 4.335938 0.0390625 4.492188 0.0390625 C 4.675781 0.0390625 4.882812 0.0273438 5.019531 -0.0078125 C 5.183594 -0.0390625 5.292969 -0.144531 5.292969 -0.3125 C 5.253906 -1.199219 5.183594 -2.605469 5.125 -3.359375 C 5 -4.773438 4.160156 -5.390625 2.664062 -5.390625 C 2.039062 -5.390625 1.433594 -5.300781 0.90625 -5.136719 C 0.789062 -5.085938 0.730469 -4.980469 0.710938 -4.832031 C 0.683594 -4.636719 0.613281 -4.0625 0.605469 -3.855469 C 0.585938 -3.5625 0.839844 -3.457031 0.984375 -3.660156 C 1.453125 -4.070312 2.128906 -4.246094 2.714844 -4.246094 C 3.40625 -4.246094 3.660156 -4.023438 3.660156 -3.816406 C 3.660156 -3.464844 3.261719 -3.347656 2.136719 -3.191406 C 0.917969 -2.988281 0.175781 -2.429688 0.175781 -1.453125 C 0.175781 -0.339844 0.839844 0.078125 1.824219 0.078125 Z M 2.488281 -1.132812 C 1.902344 -1.132812 1.660156 -1.308594 1.660156 -1.746094 C 1.660156 -2.34375 2.324219 -2.742188 3.015625 -2.742188 C 3.476562 -2.742188 3.640625 -2.519531 3.640625 -2.207031 C 3.640625 -1.523438 2.976562 -1.132812 2.488281 -1.132812 Z M 2.488281 -1.132812 "/></g></g></g><g fill="#ffffff" fill-opacity="1"><g transform="translate(139.982969, 98.234792)"><g><path d="M 2.976562 0.078125 C 3.378906 0.078125 4.160156 0 4.519531 -0.164062 C 4.617188 -0.214844 4.6875 -0.3125 4.695312 -0.46875 C 4.695312 -0.730469 4.707031 -0.957031 4.707031 -1.238281 C 4.714844 -1.511719 4.480469 -1.621094 4.316406 -1.445312 C 4.140625 -1.316406 3.523438 -1.171875 3.300781 -1.171875 C 2.917969 -1.171875 2.636719 -1.367188 2.605469 -1.875 C 2.585938 -2.441406 2.578125 -3.28125 2.636719 -3.964844 C 2.664062 -4.199219 2.800781 -4.324219 3.035156 -4.324219 C 3.308594 -4.335938 4.050781 -4.304688 4.316406 -4.277344 C 4.460938 -4.257812 4.578125 -4.394531 4.578125 -4.539062 L 4.578125 -5.066406 C 4.578125 -5.214844 4.460938 -5.332031 4.316406 -5.332031 C 3.90625 -5.320312 3.300781 -5.3125 2.890625 -5.3125 C 2.792969 -5.3125 2.714844 -5.390625 2.714844 -5.507812 C 2.714844 -5.78125 2.753906 -6.003906 2.773438 -6.269531 C 2.792969 -6.425781 2.664062 -6.523438 2.539062 -6.542969 C 2.371094 -6.570312 2.214844 -6.582031 2.050781 -6.582031 C 1.894531 -6.582031 1.726562 -6.570312 1.5625 -6.542969 C 1.425781 -6.523438 1.335938 -6.425781 1.316406 -6.269531 C 1.289062 -6.015625 1.277344 -5.742188 1.277344 -5.496094 C 1.277344 -5.390625 1.210938 -5.3125 1.101562 -5.3125 L 0.378906 -5.3125 C 0.234375 -5.3125 0.117188 -5.195312 0.117188 -5.046875 L 0.117188 -4.589844 C 0.117188 -4.441406 0.234375 -4.316406 0.378906 -4.324219 C 0.613281 -4.335938 0.867188 -4.335938 1.101562 -4.335938 C 1.191406 -4.335938 1.289062 -4.257812 1.277344 -4.160156 C 1.199219 -3.359375 1.179688 -2.351562 1.179688 -1.667969 C 1.191406 -0.515625 1.972656 0.078125 2.976562 0.078125 Z M 2.976562 0.078125 "/></g></g></g><g fill="#ffffff" fill-opacity="1"><g transform="translate(144.805211, 98.234792)"><g><path d="M 1.074219 0.0390625 C 1.21875 0.0390625 1.464844 0.0273438 1.621094 0.0078125 C 1.746094 -0.0195312 1.84375 -0.117188 1.835938 -0.273438 C 1.699219 -2.117188 1.785156 -5.097656 1.992188 -6.746094 C 2.011719 -6.894531 1.914062 -7.011719 1.777344 -7.03125 C 1.640625 -7.058594 1.355469 -7.070312 1.171875 -7.070312 C 1.015625 -7.070312 0.808594 -7.058594 0.671875 -7.03125 C 0.546875 -7.011719 0.449219 -6.921875 0.429688 -6.785156 C 0.3125 -5.320312 0.273438 -2.539062 0.273438 -0.273438 C 0.273438 -0.117188 0.359375 -0.0273438 0.488281 0 C 0.644531 0.0273438 0.925781 0.0390625 1.074219 0.0390625 Z M 1.074219 0.0390625 "/></g></g></g><g fill="#ffffff" fill-opacity="1"><g transform="translate(147.050382, 98.234792)"><g><path d="M 3.015625 0.078125 C 3.699219 0.078125 4.539062 -0.0664062 5.019531 -0.390625 C 5.097656 -0.4375 5.144531 -0.546875 5.144531 -0.652344 C 5.136719 -0.9375 5.125 -1.25 5.105469 -1.53125 C 5.097656 -1.796875 4.890625 -1.855469 4.746094 -1.679688 C 4.375 -1.335938 3.738281 -1.09375 3.230469 -1.09375 C 2.558594 -1.09375 1.835938 -1.492188 1.601562 -2.039062 C 1.472656 -2.226562 1.589844 -2.371094 1.785156 -2.246094 C 2.167969 -2.039062 2.683594 -1.953125 3.222656 -1.953125 C 4.199219 -1.953125 5.078125 -2.597656 5.078125 -3.5625 C 5.078125 -4.753906 4.140625 -5.390625 2.761719 -5.390625 C 1.277344 -5.390625 0.175781 -4.421875 0.175781 -2.714844 C 0.175781 -0.925781 1.296875 0.078125 3.015625 0.078125 Z M 2.839844 -2.703125 C 2.332031 -2.703125 1.5625 -2.878906 1.5625 -3.28125 C 1.5625 -3.914062 2.1875 -4.296875 2.78125 -4.296875 C 3.464844 -4.296875 3.75 -3.992188 3.75 -3.484375 C 3.75 -2.996094 3.398438 -2.703125 2.839844 -2.703125 Z M 2.839844 -2.703125 "/></g></g></g><g fill="#ffffff" fill-opacity="1"><g transform="translate(152.380227, 98.234792)"><g><path d="M 2.976562 0.078125 C 3.378906 0.078125 4.160156 0 4.519531 -0.164062 C 4.617188 -0.214844 4.6875 -0.3125 4.695312 -0.46875 C 4.695312 -0.730469 4.707031 -0.957031 4.707031 -1.238281 C 4.714844 -1.511719 4.480469 -1.621094 4.316406 -1.445312 C 4.140625 -1.316406 3.523438 -1.171875 3.300781 -1.171875 C 2.917969 -1.171875 2.636719 -1.367188 2.605469 -1.875 C 2.585938 -2.441406 2.578125 -3.28125 2.636719 -3.964844 C 2.664062 -4.199219 2.800781 -4.324219 3.035156 -4.324219 C 3.308594 -4.335938 4.050781 -4.304688 4.316406 -4.277344 C 4.460938 -4.257812 4.578125 -4.394531 4.578125 -4.539062 L 4.578125 -5.066406 C 4.578125 -5.214844 4.460938 -5.332031 4.316406 -5.332031 C 3.90625 -5.320312 3.300781 -5.3125 2.890625 -5.3125 C 2.792969 -5.3125 2.714844 -5.390625 2.714844 -5.507812 C 2.714844 -5.78125 2.753906 -6.003906 2.773438 -6.269531 C 2.792969 -6.425781 2.664062 -6.523438 2.539062 -6.542969 C 2.371094 -6.570312 2.214844 -6.582031 2.050781 -6.582031 C 1.894531 -6.582031 1.726562 -6.570312 1.5625 -6.542969 C 1.425781 -6.523438 1.335938 -6.425781 1.316406 -6.269531 C 1.289062 -6.015625 1.277344 -5.742188 1.277344 -5.496094 C 1.277344 -5.390625 1.210938 -5.3125 1.101562 -5.3125 L 0.378906 -5.3125 C 0.234375 -5.3125 0.117188 -5.195312 0.117188 -5.046875 L 0.117188 -4.589844 C 0.117188 -4.441406 0.234375 -4.316406 0.378906 -4.324219 C 0.613281 -4.335938 0.867188 -4.335938 1.101562 -4.335938 C 1.191406 -4.335938 1.289062 -4.257812 1.277344 -4.160156 C 1.199219 -3.359375 1.179688 -2.351562 1.179688 -1.667969 C 1.191406 -0.515625 1.972656 0.078125 2.976562 0.078125 Z M 2.976562 0.078125 "/></g></g></g><g fill="#ffffff" fill-opacity="1"><g transform="translate(157.20247, 98.234792)"><g><path d="M 1.824219 0.078125 C 2.519531 0.078125 3.203125 -0.320312 3.503906 -0.964844 C 3.582031 -1.132812 3.730469 -1.09375 3.710938 -0.90625 C 3.691406 -0.703125 3.652344 -0.46875 3.632812 -0.339844 C 3.601562 -0.175781 3.730469 -0.0390625 3.894531 -0.0078125 C 4.050781 0.0273438 4.335938 0.0390625 4.492188 0.0390625 C 4.675781 0.0390625 4.882812 0.0273438 5.019531 -0.0078125 C 5.183594 -0.0390625 5.292969 -0.144531 5.292969 -0.3125 C 5.253906 -1.199219 5.183594 -2.605469 5.125 -3.359375 C 5 -4.773438 4.160156 -5.390625 2.664062 -5.390625 C 2.039062 -5.390625 1.433594 -5.300781 0.90625 -5.136719 C 0.789062 -5.085938 0.730469 -4.980469 0.710938 -4.832031 C 0.683594 -4.636719 0.613281 -4.0625 0.605469 -3.855469 C 0.585938 -3.5625 0.839844 -3.457031 0.984375 -3.660156 C 1.453125 -4.070312 2.128906 -4.246094 2.714844 -4.246094 C 3.40625 -4.246094 3.660156 -4.023438 3.660156 -3.816406 C 3.660156 -3.464844 3.261719 -3.347656 2.136719 -3.191406 C 0.917969 -2.988281 0.175781 -2.429688 0.175781 -1.453125 C 0.175781 -0.339844 0.839844 0.078125 1.824219 0.078125 Z M 2.488281 -1.132812 C 1.902344 -1.132812 1.660156 -1.308594 1.660156 -1.746094 C 1.660156 -2.34375 2.324219 -2.742188 3.015625 -2.742188 C 3.476562 -2.742188 3.640625 -2.519531 3.640625 -2.207031 C 3.640625 -1.523438 2.976562 -1.132812 2.488281 -1.132812 Z M 2.488281 -1.132812 "/></g></g></g><g fill="#ffffff" fill-opacity="1"><g transform="translate(162.717789, 98.234792)"><g><path d="M 2.605469 0.0664062 C 4.167969 0.0664062 5 -0.546875 5 -1.484375 C 5 -3.261719 1.777344 -3.015625 1.777344 -3.796875 C 1.777344 -4.101562 2.226562 -4.285156 2.78125 -4.285156 C 3.308594 -4.285156 3.886719 -4.101562 4.257812 -3.835938 C 4.402344 -3.699219 4.617188 -3.710938 4.617188 -4.042969 C 4.617188 -4.304688 4.617188 -4.570312 4.609375 -4.832031 C 4.609375 -4.980469 4.511719 -5.105469 4.355469 -5.164062 C 3.894531 -5.300781 3.171875 -5.378906 2.695312 -5.378906 C 1.316406 -5.378906 0.320312 -4.882812 0.320312 -3.925781 C 0.320312 -2.167969 3.542969 -2.46875 3.542969 -1.609375 C 3.542969 -1.230469 3.191406 -1.082031 2.527344 -1.082031 C 1.875 -1.082031 1.0625 -1.355469 0.613281 -1.738281 C 0.488281 -1.894531 0.253906 -1.855469 0.234375 -1.570312 C 0.214844 -1.25 0.203125 -0.9375 0.183594 -0.613281 C 0.175781 -0.4375 0.273438 -0.332031 0.417969 -0.273438 C 0.984375 -0.0976562 1.921875 0.0664062 2.605469 0.0664062 Z M 2.605469 0.0664062 "/></g></g></g><g fill="#ffffff" fill-opacity="1"><g transform="translate(167.901218, 98.234792)"><g><path d="M 1.152344 -6.914062 C 1.035156 -6.914062 0.761719 -6.902344 0.59375 -6.875 C 0.476562 -6.855469 0.378906 -6.765625 0.378906 -6.628906 C 0.378906 -4.609375 0.429688 -3.652344 0.527344 -2.363281 C 0.546875 -2.214844 0.625 -2.167969 0.75 -2.136719 C 0.886719 -2.128906 1.054688 -2.109375 1.152344 -2.109375 C 1.238281 -2.109375 1.386719 -2.117188 1.511719 -2.136719 C 1.640625 -2.167969 1.71875 -2.214844 1.738281 -2.363281 C 1.835938 -3.652344 1.882812 -4.609375 1.882812 -6.640625 C 1.882812 -6.777344 1.796875 -6.855469 1.667969 -6.875 C 1.511719 -6.902344 1.25 -6.914062 1.152344 -6.914062 Z M 1.113281 0.078125 C 1.660156 0.078125 2.070312 -0.242188 2.070312 -0.808594 C 2.070312 -1.394531 1.667969 -1.71875 1.113281 -1.71875 C 0.566406 -1.71875 0.164062 -1.394531 0.164062 -0.820312 C 0.164062 -0.242188 0.566406 0.078125 1.113281 0.078125 Z M 1.113281 0.078125 "/></g></g></g></svg>